<?xml version="1.0" encoding="UTF-8" standalone="no"?><!DOCTYPE svg PUBLIC "-//W3C//DTD SVG 1.1//EN" "http://www.w3.org/Graphics/SVG/1.1/DTD/svg11.dtd"><svg width="100%" height="100%" viewBox="0 0 512 512" version="1.1" xmlns="http://www.w3.org/2000/svg" xmlns:xlink="http://www.w3.org/1999/xlink" xml:space="preserve" xmlns:serif="http://www.serif.com/" style="fill-rule:evenodd;clip-rule:evenodd;stroke-linejoin:round;stroke-miterlimit:2;"><g><path d="M175.5,324.89l-77.48,0.11l-0.52,112.85l-75,-66.41l-0.51,-261.44l154.99,0l70.88,62.5l0.13,88l-72.49,64.39Zm166.5,46.01c0,0 -75.13,66.1 -75.44,66.1c-0.31,0 -0.34,-364 -0.08,-364c0.26,0 75.52,68.09 75.52,68.09l0,67.91l76,0l0,-46.82c0,0 72.71,-64.86 73.17,-64.57c0.96,0.59 0.93,298.01 -0.03,306.66l-0.64,5.77l-72.5,-66.15l0,-63.89l-76,0l0,90.9Zm-245,-201.9l0,89l78,0l0,-89l-78,0Z" style="fill:#fd4e01;fill-rule:nonzero;"/></g></svg>